<?xml version="1.0" standalone="no"?>
<!DOCTYPE svg PUBLIC "-//W3C//DTD SVG 20010904//EN"
 "http://www.w3.org/TR/2001/REC-SVG-20010904/DTD/svg10.dtd">
<svg version="1.0" xmlns="http://www.w3.org/2000/svg"
 width="768.000000pt" height="924.000000pt" viewBox="0 0 768.000000 924.000000"
 preserveAspectRatio="xMidYMid meet">

<g transform="translate(0.000000,924.000000) scale(0.100000,-0.100000)"
fill="#000000" stroke="none">
<path d="M4449 9096 c-3 -3 -120 -8 -260 -11 -407 -8 -574 -25 -671 -69 -73
-32 -175 -136 -356 -360 -145 -181 -203 -280 -236 -406 -14 -52 -39 -129 -55
-170 -115 -296 -166 -445 -191 -565 -42 -196 -91 -351 -180 -575 -23 -58 -48
-132 -56 -164 -9 -33 -20 -68 -25 -78 -5 -10 -26 -82 -45 -160 -27 -110 -38
-177 -45 -293 -5 -95 -18 -187 -33 -250 -13 -55 -27 -120 -31 -145 -4 -25 -17
-94 -30 -155 -13 -60 -35 -171 -50 -245 -14 -74 -41 -205 -60 -290 -18 -85
-39 -198 -45 -250 -6 -52 -16 -114 -21 -138 -14 -65 -79 -434 -95 -542 -7 -52
-25 -142 -39 -200 -49 -206 -127 -594 -165 -815 -23 -139 -49 -247 -79 -326
-16 -45 -19 -70 -15 -120 10 -106 -38 -249 -106 -317 -22 -23 -48 -35 -102
-47 -84 -19 -89 -18 -337 41 -196 47 -255 52 -341 29 -30 -8 -87 -15 -125 -15
-70 0 -71 0 -170 -67 -123 -82 -233 -170 -267 -215 -51 -67 -88 -154 -114
-271 -30 -136 -30 -139 53 -322 86 -191 106 -224 172 -287 89 -83 232 -188
316 -231 65 -32 221 -85 305 -102 19 -4 69 -19 110 -33 70 -23 90 -25 285 -26
179 -1 226 2 320 21 61 12 182 27 270 33 88 6 189 15 225 20 36 5 139 14 230
20 267 18 336 26 366 42 145 76 264 152 414 263 95 71 116 85 213 142 67 39
83 64 102 155 8 40 22 102 30 138 21 96 19 181 -10 285 -88 322 -125 506 -125
619 0 130 16 189 75 276 59 86 113 128 250 195 107 52 199 67 520 84 267 15
393 14 555 -4 218 -24 283 -49 392 -153 147 -140 195 -350 163 -717 -26 -309
-18 -279 -162 -583 -40 -85 -106 -122 -219 -122 -34 0 -98 -7 -141 -15 -43 -8
-105 -15 -138 -15 -111 0 -321 -88 -427 -177 -31 -26 -82 -64 -112 -83 -147
-91 -151 -94 -163 -132 -28 -86 -45 -270 -40 -428 8 -227 18 -248 125 -272 30
-6 95 -36 146 -65 131 -77 233 -124 376 -171 198 -65 298 -91 400 -102 52 -6
158 -21 235 -33 201 -31 513 -31 670 0 61 12 151 27 200 33 50 6 128 22 175
36 47 14 123 36 170 50 104 31 367 152 521 239 63 36 167 93 231 126 92 47
127 72 158 109 64 77 78 119 90 276 6 76 20 181 31 234 11 52 24 155 29 228 6
73 17 166 25 205 8 40 19 135 25 212 6 77 13 156 16 175 3 20 -2 85 -12 145
-13 90 -15 140 -8 275 5 91 9 287 10 435 1 149 2 407 3 575 1 168 -3 350 -8
405 -6 55 -11 177 -11 270 0 94 -5 209 -11 255 -6 47 -12 168 -13 270 -3 230
-22 474 -47 605 -11 55 -24 174 -30 265 -5 91 -16 251 -24 355 -8 105 -19 276
-25 380 -6 105 -20 237 -30 295 -11 58 -26 164 -34 235 -9 72 -24 159 -35 195
-10 36 -37 126 -59 200 -60 201 -206 625 -241 704 -18 38 -59 110 -92 158 -33
49 -72 113 -86 141 -74 147 -231 339 -336 410 -23 15 -48 34 -57 41 -23 20
-162 89 -275 138 -77 33 -116 57 -169 105 -115 104 -155 117 -425 133 -91 6
-211 16 -266 21 -55 6 -203 15 -330 19 -126 4 -288 11 -360 15 -71 4 -133 5
-136 1z m29 -275 c50 -9 95 -8 215 4 192 19 273 19 327 0 23 -8 59 -15 79 -15
20 0 61 -7 91 -15 30 -8 76 -15 102 -15 26 0 73 -7 105 -15 31 -8 83 -15 116
-15 32 0 71 -7 87 -15 16 -9 74 -26 127 -39 90 -21 107 -29 208 -99 61 -42
133 -94 160 -116 28 -23 74 -57 102 -76 29 -20 71 -60 94 -90 23 -30 45 -55
49 -55 4 0 22 -27 40 -61 17 -33 52 -83 76 -110 23 -27 59 -83 79 -124 20 -42
47 -82 60 -91 20 -13 59 -97 94 -202 5 -18 19 -45 29 -60 38 -53 85 -159 128
-282 24 -69 57 -159 74 -200 18 -41 38 -115 46 -165 7 -49 32 -181 54 -293 22
-111 47 -268 54 -350 8 -81 19 -172 25 -202 5 -30 12 -111 16 -180 3 -69 17
-226 30 -350 23 -219 30 -310 61 -820 9 -135 20 -301 24 -370 8 -115 25 -400
50 -870 6 -102 13 -430 16 -730 6 -563 7 -552 -42 -1360 -22 -381 -36 -433
-146 -560 -64 -73 -101 -98 -193 -130 -29 -10 -75 -35 -103 -57 -33 -25 -84
-49 -139 -67 -49 -15 -106 -36 -128 -46 -85 -40 -174 -62 -319 -81 -83 -11
-185 -31 -226 -44 -144 -45 -223 -55 -503 -66 -366 -14 -569 6 -759 75 -53 19
-134 43 -180 52 -96 19 -122 31 -162 74 -16 17 -46 40 -68 51 -44 23 -59 50
-79 145 -10 48 -10 76 0 134 15 94 28 118 124 222 96 103 142 127 360 188 180
50 296 64 397 49 41 -6 117 -13 167 -16 77 -4 97 -2 119 12 31 20 63 88 64
132 0 48 48 341 64 398 32 108 47 262 53 530 8 373 -9 539 -61 602 -12 15 -33
54 -46 86 -13 33 -34 65 -48 75 -14 9 -48 40 -76 68 -42 41 -63 54 -116 68
-36 10 -90 31 -120 47 -30 15 -81 35 -114 43 -86 23 -410 30 -766 17 -263 -9
-322 -15 -425 -37 -66 -14 -160 -32 -208 -40 -49 -7 -126 -26 -170 -40 -175
-58 -231 -101 -307 -239 -45 -82 -55 -116 -74 -250 -14 -99 -14 -102 21 -305
19 -113 48 -243 64 -290 44 -130 79 -294 79 -368 0 -80 -33 -161 -77 -188 -56
-36 -189 -143 -219 -177 -30 -34 -84 -56 -211 -87 -23 -6 -55 -22 -72 -35 -43
-37 -100 -54 -255 -75 -76 -11 -177 -29 -225 -41 -186 -45 -777 -75 -954 -48
-145 21 -490 126 -540 163 -18 13 -50 33 -72 44 -46 23 -153 139 -183 198 -11
22 -28 66 -37 98 -21 72 -11 138 36 233 26 54 39 69 97 106 78 50 162 82 268
102 96 19 174 19 288 0 50 -8 157 -21 238 -28 145 -14 149 -15 240 -62 108
-55 139 -56 211 -6 55 37 89 102 112 211 8 41 29 125 45 185 41 150 67 274 80
375 5 47 21 150 35 230 14 80 36 222 50 316 14 94 31 206 40 249 23 124 63
374 70 445 4 36 11 85 17 110 5 25 18 90 28 145 11 55 31 161 45 235 14 74 32
182 40 240 34 244 82 501 99 529 3 4 14 54 25 112 37 189 43 213 76 329 18 63
40 158 50 210 36 198 106 449 160 570 34 76 40 97 70 250 31 160 48 224 66
255 10 17 34 81 53 143 19 62 62 188 95 280 33 92 69 203 81 247 12 44 36 116
52 160 17 44 50 130 73 191 24 61 58 145 77 185 20 41 43 95 53 121 9 26 36
69 59 96 22 28 53 72 67 98 25 47 33 52 170 122 177 88 212 101 317 112 64 7
92 6 124 -6 53 -18 92 -17 153 7 54 20 119 20 233 0z"/>
<path d="M4315 7935 c-27 -7 -100 -14 -161 -14 -65 -1 -128 -7 -150 -15 -22
-7 -64 -16 -94 -20 -75 -10 -178 -41 -264 -81 -86 -40 -154 -106 -193 -190
-27 -58 -28 -66 -28 -215 0 -125 3 -163 18 -198 9 -23 17 -55 17 -71 0 -15 11
-45 25 -65 14 -20 32 -51 41 -69 22 -42 129 -140 218 -199 39 -26 82 -57 96
-69 49 -42 276 -125 405 -148 96 -17 537 -25 630 -11 44 6 121 15 170 19 50 5
108 16 130 24 22 8 76 18 120 21 44 2 105 12 135 20 30 9 84 23 120 32 36 8
90 28 120 43 30 16 73 34 95 41 94 29 271 156 310 222 10 18 33 48 50 67 18
20 39 58 48 85 32 94 16 257 -31 327 -9 15 -30 46 -45 69 -43 63 -159 177
-224 219 -72 46 -166 80 -353 127 -142 36 -149 37 -320 35 -118 -1 -203 3
-260 14 -110 19 -549 19 -625 0z m715 -250 c58 -8 144 -15 192 -15 65 0 110
-7 175 -26 49 -15 113 -33 143 -41 66 -17 188 -96 213 -138 10 -16 34 -55 53
-85 27 -42 34 -62 29 -84 -6 -35 -29 -62 -67 -82 -46 -24 -220 -67 -303 -75
-44 -4 -107 -12 -140 -18 -33 -6 -99 -11 -146 -11 -57 0 -101 -6 -130 -17 -38
-14 -85 -17 -339 -16 l-295 0 -78 37 c-85 39 -246 147 -315 210 -23 21 -60 66
-82 98 -51 77 -53 114 -7 164 44 48 135 72 322 84 77 6 156 14 175 19 58 15
482 12 600 -4z"/>
</g>
</svg>
